<svg width="20" height="20" viewBox="0 0 20 20" fill="none" xmlns="http://www.w3.org/2000/svg">
<path d="M4.64104 6.57171C4.40292 5.00171 5.51166 3.58796 7.20541 3.06921C7.50615 2.97717 7.83067 3.00332 8.11277 3.14234C8.39488 3.28137 8.61332 3.52278 8.72354 3.81734L9.26667 5.26734C9.35399 5.50058 9.36964 5.75459 9.31163 5.99679C9.25361 6.239 9.12456 6.45835 8.94104 6.62671L7.32542 8.10859C7.24574 8.18179 7.18636 8.27437 7.15307 8.37732C7.11977 8.48027 7.11369 8.59009 7.13542 8.69609L7.14979 8.76109L7.18979 8.92421C7.22542 9.06171 7.27917 9.25546 7.35479 9.48671C7.50479 9.94609 7.74416 10.5636 8.10041 11.1805C8.45666 11.7973 8.87167 12.3136 9.19416 12.673C9.36213 12.8601 9.53769 13.0402 9.72041 13.213L9.77041 13.2592C9.85123 13.3308 9.9492 13.3802 10.0548 13.4027C10.1604 13.4251 10.27 13.4198 10.3729 13.3873L12.4642 12.7292C12.7018 12.6545 12.9563 12.6525 13.195 12.7235C13.4338 12.7944 13.6459 12.935 13.8042 13.1273L14.7935 14.3286C15.206 14.8286 15.1573 15.5636 14.6829 16.0055C13.3867 17.2136 11.6042 17.4617 10.3642 16.4642C8.84426 15.2383 7.56292 13.7432 6.58417 12.0536C5.59732 10.3651 4.93807 8.50479 4.64104 6.57171ZM8.44479 8.77796L9.78604 7.54796C10.1531 7.21123 10.4112 6.77253 10.5272 6.28813C10.6432 5.80372 10.6119 5.2957 10.4373 4.82921L9.89354 3.37921C9.67171 2.78679 9.2323 2.30127 8.66487 2.02163C8.09745 1.74198 7.44474 1.68926 6.83979 1.87421C4.73666 2.51796 3.04791 4.40359 3.40541 6.75921C3.72604 8.84797 4.43786 10.8575 5.50354 12.6823C6.55921 14.5044 7.94118 16.1167 9.58042 17.4386C11.4398 18.9323 13.9235 18.423 15.5354 16.9198C15.9966 16.49 16.2765 15.9004 16.318 15.2712C16.3594 14.6421 16.1593 14.0209 15.7585 13.5342L14.7692 12.333C14.4526 11.9482 14.0282 11.6669 13.5506 11.525C13.073 11.3831 12.5638 11.3872 12.0885 11.5367L10.3529 12.083C10.2752 12.0031 10.1992 11.9216 10.1248 11.8386C9.76809 11.444 9.45251 11.014 9.18292 10.5555C8.92047 10.0926 8.70582 9.60427 8.54229 9.09796C8.50761 8.99197 8.47511 8.88528 8.44479 8.77796Z" fill="#8F8F8F"/>
</svg>
