<svg width="54" height="54" viewBox="0 0 54 54" fill="none" xmlns="http://www.w3.org/2000/svg">
<path d="M20.25 8.4375C20.25 7.98995 20.4278 7.56073 20.7443 7.24426C21.0607 6.92779 21.4899 6.75 21.9375 6.75H32.0625C32.5101 6.75 32.9393 6.92779 33.2557 7.24426C33.5722 7.56073 33.75 7.98995 33.75 8.4375V13.5H42.1875C42.6351 13.5 43.0643 13.6778 43.3807 13.9943C43.6972 14.3107 43.875 14.7399 43.875 15.1875V27.0743L47.9216 28.8292C48.1369 28.9231 48.3303 29.0608 48.4893 29.2337C48.6484 29.4065 48.7696 29.6107 48.8452 29.833C48.9208 30.0554 48.9491 30.2911 48.9284 30.5251C48.9077 30.7591 48.8384 30.9861 48.7249 31.1917L44.8605 38.1476C44.3374 37.1925 43.6792 36.2003 42.3461 35.7244L44.8706 31.1816L29.0115 24.3101C28.3765 24.0352 27.6919 23.8934 27 23.8934C26.3081 23.8934 25.6235 24.0352 24.9885 24.3101L9.12937 31.185L11.6539 35.7278C10.3241 36.2036 9.66262 37.1959 9.1395 38.151L5.27512 31.1985C5.15922 30.9925 5.08788 30.7645 5.06571 30.5292C5.04355 30.2939 5.07107 30.0565 5.14647 29.8326C5.22188 29.6086 5.3435 29.4029 5.50345 29.2289C5.66341 29.0549 5.85813 28.9164 6.075 28.8225L10.125 27.0709V15.1875C10.125 14.7399 10.3028 14.3107 10.6193 13.9943C10.9357 13.6778 11.3649 13.5 11.8125 13.5H20.25V8.4375ZM13.5 25.6095L23.6453 21.2152C24.7042 20.7564 25.8459 20.5197 27 20.5197C28.1541 20.5197 29.2958 20.7564 30.3548 21.2152L40.5 25.6095V16.875H13.5V25.6095ZM30.375 10.125H23.625V13.5H30.375V10.125ZM12.1567 39.4807C12.1151 39.5346 12.0768 39.591 12.042 39.6495C11.9654 39.7879 11.8978 39.9311 11.8395 40.0781C11.7858 40.2129 11.725 40.3447 11.6572 40.473C11.3751 40.9731 11.0253 41.432 10.6177 41.8365C9.6525 42.8085 7.965 43.875 5.0625 43.875C4.61495 43.875 4.18572 44.0528 3.86926 44.3693C3.55279 44.6857 3.375 45.1149 3.375 45.5625C3.375 46.0101 3.55279 46.4393 3.86926 46.7557C4.18572 47.0722 4.61495 47.25 5.0625 47.25C8.91338 47.25 11.4446 45.7853 13.0073 44.226C13.1524 44.0775 13.2908 43.9324 13.419 43.7872C13.5034 43.8919 13.5877 44.0032 13.6789 44.1112C14.9512 45.6367 17.0775 47.25 20.25 47.25C23.4225 47.25 25.5488 45.6367 26.8211 44.1112L27 43.8885L27.1789 44.1112C28.4513 45.6367 30.5775 47.25 33.75 47.25C36.9225 47.25 39.0487 45.6367 40.3211 44.1112C40.4122 44.0032 40.4966 43.8919 40.581 43.7839C40.7093 43.929 40.8476 44.0775 40.9927 44.2226C42.5554 45.7852 45.0866 47.25 48.9375 47.25C49.3851 47.25 49.8143 47.0722 50.1307 46.7557C50.4472 46.4393 50.625 46.0101 50.625 45.5625C50.625 45.1149 50.4472 44.6857 50.1307 44.3693C49.8143 44.0528 49.3851 43.875 48.9375 43.875C46.0384 43.875 44.3509 42.8085 43.3823 41.8365C42.8371 41.3001 42.4015 40.6628 42.0997 39.96C41.9848 39.6276 41.7692 39.3394 41.4827 39.1353C41.1963 38.9313 40.8534 38.8216 40.5017 38.8216C40.15 38.8216 39.8071 38.9313 39.5207 39.1353C39.2342 39.3394 39.0185 39.6276 38.9036 39.96C38.6188 40.6811 38.2225 41.3531 37.7291 41.9513C36.8887 42.957 35.6366 43.875 33.7466 43.875C31.86 43.875 30.6079 42.957 29.7709 41.9513C29.2816 41.3577 28.8876 40.6916 28.6031 39.9769C28.533 39.7575 28.4184 39.555 28.2665 39.3818C28.1146 39.2087 27.9287 39.0687 27.7204 38.9706C27.5121 38.8724 27.2857 38.8182 27.0555 38.8113C26.8253 38.8045 26.5962 38.8451 26.3824 38.9306C26.1502 39.0207 25.941 39.1613 25.77 39.3423C25.5989 39.5232 25.4703 39.74 25.3935 39.9769C25.109 40.6916 24.715 41.3577 24.2257 41.9513C23.3887 42.957 22.14 43.875 20.25 43.875C18.36 43.875 17.1113 42.957 16.2743 41.9513C15.9141 41.5154 15.605 41.0398 15.3529 40.5338C15.2912 40.4091 15.2349 40.2819 15.1841 40.1524C15.1166 39.9836 15.0491 39.8081 14.958 39.6529C14.7516 39.2978 14.4228 39.0302 14.0332 38.9003L14.0164 38.8935C13.6839 38.7854 13.3259 38.7838 12.9925 38.8891C12.659 38.9944 12.3668 39.2013 12.1567 39.4807Z" fill="#3B5284"/>
</svg>
