<svg width="11" height="11" viewBox="0 0 11 11" fill="none" xmlns="http://www.w3.org/2000/svg">
<rect width="11" height="11" fill="white"/>
<path d="M7.60792 2.6675C7.29461 2.30983 7.12195 1.85049 7.12208 1.375H5.70583V7.05833C5.69491 7.36589 5.56507 7.6572 5.34364 7.87093C5.12222 8.08466 4.8265 8.20412 4.51875 8.20417C3.86792 8.20417 3.32708 7.6725 3.32708 7.0125C3.32708 6.22417 4.08792 5.63292 4.87167 5.87583V4.4275C3.29042 4.21667 1.90625 5.445 1.90625 7.0125C1.90625 8.53875 3.17125 9.625 4.51417 9.625C5.95333 9.625 7.12208 8.45625 7.12208 7.0125V4.12958C7.69637 4.54201 8.38588 4.7633 9.09292 4.76208V3.34583C9.09292 3.34583 8.23125 3.38708 7.60792 2.6675Z" fill="#7600BF"/>
</svg>
