<svg width="20" height="20" viewBox="0 0 20 20" fill="none" xmlns="http://www.w3.org/2000/svg">
<path d="M5.83203 7.5L9.9987 10.4167L14.1654 7.5" stroke="#8F8F8F" stroke-width="1.25" stroke-linecap="round" stroke-linejoin="round"/>
<path d="M1.66602 14.167V5.83366C1.66602 5.39163 1.84161 4.96771 2.15417 4.65515C2.46673 4.34259 2.89065 4.16699 3.33268 4.16699H16.666C17.108 4.16699 17.532 4.34259 17.8445 4.65515C18.1571 4.96771 18.3327 5.39163 18.3327 5.83366V14.167C18.3327 14.609 18.1571 15.0329 17.8445 15.3455C17.532 15.6581 17.108 15.8337 16.666 15.8337H3.33268C2.89065 15.8337 2.46673 15.6581 2.15417 15.3455C1.84161 15.0329 1.66602 14.609 1.66602 14.167Z" stroke="#8F8F8F" stroke-width="1.25"/>
</svg>
