<svg width="20" height="19" viewBox="0 0 20 19" fill="none" xmlns="http://www.w3.org/2000/svg">
<path d="M12.5 9.5C12.5 10.1299 12.2366 10.734 11.7678 11.1794C11.2989 11.6248 10.663 11.875 10 11.875C9.33696 11.875 8.70107 11.6248 8.23223 11.1794C7.76339 10.734 7.5 10.1299 7.5 9.5C7.5 8.87011 7.76339 8.26602 8.23223 7.82062C8.70107 7.37522 9.33696 7.125 10 7.125C10.663 7.125 11.2989 7.37522 11.7678 7.82062C12.2366 8.26602 12.5 8.87011 12.5 9.5Z" stroke="black" stroke-width="1.25" stroke-linecap="round" stroke-linejoin="round"/>
<path d="M1.66602 9.50016C2.99935 6.2567 6.11268 3.9585 9.99935 3.9585C13.886 3.9585 16.9993 6.2567 18.3327 9.50016C16.9993 12.7436 13.886 15.0418 9.99935 15.0418C6.11268 15.0418 2.99935 12.7436 1.66602 9.50016Z" stroke="black" stroke-width="1.25" stroke-linecap="round" stroke-linejoin="round"/>
</svg>
