<svg width="20" height="20" viewBox="0 0 20 20" fill="none" xmlns="http://www.w3.org/2000/svg">
<path d="M5.83203 7.5L9.9987 10.4167L14.1654 7.5" stroke="#3B5284" stroke-opacity="0.75" stroke-width="1.25" stroke-linecap="round" stroke-linejoin="round"/>
<path d="M1.66602 14.1665V5.83317C1.66602 5.39114 1.84161 4.96722 2.15417 4.65466C2.46673 4.3421 2.89065 4.1665 3.33268 4.1665H16.666C17.108 4.1665 17.532 4.3421 17.8445 4.65466C18.1571 4.96722 18.3327 5.39114 18.3327 5.83317V14.1665C18.3327 14.6085 18.1571 15.0325 17.8445 15.345C17.532 15.6576 17.108 15.8332 16.666 15.8332H3.33268C2.89065 15.8332 2.46673 15.6576 2.15417 15.345C1.84161 15.0325 1.66602 14.6085 1.66602 14.1665Z" stroke="#3B5284" stroke-opacity="0.75" stroke-width="1.25"/>
</svg>
