<svg width="19" height="19" viewBox="0 0 19 19" fill="none" xmlns="http://www.w3.org/2000/svg">
<path d="M11.875 9.5C11.875 10.1299 11.6248 10.734 11.1794 11.1794C10.734 11.6248 10.1299 11.875 9.5 11.875C8.87011 11.875 8.26602 11.6248 7.82062 11.1794C7.37522 10.734 7.125 10.1299 7.125 9.5C7.125 8.87011 7.37522 8.26602 7.82062 7.82062C8.26602 7.37522 8.87011 7.125 9.5 7.125C10.1299 7.125 10.734 7.37522 11.1794 7.82062C11.6248 8.26602 11.875 8.87011 11.875 9.5Z" stroke="black" stroke-width="1.25" stroke-linecap="round" stroke-linejoin="round"/>
<path d="M1.58398 9.50016C2.85065 6.2567 5.80832 3.9585 9.50065 3.9585C13.193 3.9585 16.1507 6.2567 17.4173 9.50016C16.1507 12.7436 13.193 15.0418 9.50065 15.0418C5.80832 15.0418 2.85065 12.7436 1.58398 9.50016Z" stroke="black" stroke-width="1.25" stroke-linecap="round" stroke-linejoin="round"/>
</svg>
