<svg width="54" height="54" viewBox="0 0 54 54" fill="none" xmlns="http://www.w3.org/2000/svg">
<path d="M27 6.75004L27.6638 5.19754C27.454 5.1078 27.2282 5.06152 27 5.06152C26.7718 5.06152 26.546 5.1078 26.3362 5.19754L27 6.75004ZM27 47.25L26.163 48.7148C26.4179 48.8604 26.7064 48.937 27 48.937C27.2936 48.937 27.5821 48.8604 27.837 48.7148L27 47.25ZM18.054 42.1358L17.2148 43.6028L18.0517 42.1358H18.054ZM26.334 5.19979L11.952 11.3625L13.275 14.4675L27.6615 8.30254L26.3362 5.19754L26.334 5.19979ZM9.5625 14.9828V30.4178H12.9375V14.9828H9.5625ZM17.2148 43.6028L26.163 48.7148L27.837 45.7853L18.8888 40.671L17.2148 43.6028ZM27.837 48.7148L36.7853 43.6028L35.1112 40.671L26.163 45.7853L27.837 48.7148ZM44.4375 30.4155V14.985H41.0625V30.42H44.4375V30.4155ZM42.0525 11.3648L27.6638 5.19979L26.3362 8.30029L40.7228 14.4675L42.0502 11.3648H42.0525ZM44.4375 14.985C44.4375 13.41 43.4993 11.9858 42.0525 11.3648L40.7228 14.4675C40.8238 14.5111 40.9098 14.5834 40.9702 14.6753C41.0306 14.7673 41.0627 14.875 41.0625 14.985H44.4375ZM36.7853 43.6028C39.1097 42.2745 41.0417 40.3554 42.3855 38.04C43.7294 35.7245 44.4373 33.095 44.4375 30.4178H41.0625C41.0621 32.4997 40.5114 34.5445 39.4663 36.3451C38.4212 38.1456 36.9188 39.638 35.1112 40.671L36.7853 43.6028ZM9.5625 30.4178C9.56274 33.095 10.2706 35.7245 11.6145 38.04C12.9583 40.3554 14.8903 42.2745 17.2148 43.6028L18.8888 40.671C17.0809 39.6378 15.5783 38.1451 14.5331 36.3441C13.488 34.5431 12.9375 32.4978 12.9375 30.4155H9.5625V30.4178ZM11.9475 11.3625C11.2397 11.6662 10.6364 12.1709 10.2125 12.8139C9.7886 13.457 9.5626 14.2126 9.5625 14.9828H12.9375C12.9375 14.7578 13.0725 14.553 13.2795 14.463L11.9475 11.367V11.3625Z" fill="#3B5284"/>
<path d="M33.75 22.5L24.75 31.5L20.25 27" stroke="#3B5284" stroke-width="2.5" stroke-linecap="round" stroke-linejoin="round"/>
</svg>
