<svg width="15" height="15" viewBox="0 0 15 15" fill="none" xmlns="http://www.w3.org/2000/svg">
<path d="M6.707 12.7072C6.51947 12.8947 6.26516 13 6 13C5.73484 13 5.48053 12.8947 5.293 12.7072L0.793 8.20721C0.605529 8.01969 0.500214 7.76538 0.500214 7.50021C0.500214 7.23505 0.605529 6.98074 0.793 6.79321L5.293 2.29321C5.4816 2.11106 5.7342 2.01026 5.9964 2.01254C6.2586 2.01482 6.50941 2.11999 6.69482 2.3054C6.88023 2.4908 6.9854 2.74162 6.98767 3.00381C6.98995 3.26601 6.88916 3.51861 6.707 3.70721L4 6.50021L13.5 6.50021C13.7652 6.50021 14.0196 6.60557 14.2071 6.79311C14.3946 6.98064 14.5 7.235 14.5 7.50021C14.5 7.76543 14.3946 8.01978 14.2071 8.20732C14.0196 8.39486 13.7652 8.50021 13.5 8.50021H4L6.707 11.2932C6.89447 11.4807 6.99979 11.735 6.99979 12.0002C6.99979 12.2654 6.89447 12.5197 6.707 12.7072Z" fill="black"/>
</svg>
