<svg width="19" height="19" viewBox="0 0 19 19" fill="none" xmlns="http://www.w3.org/2000/svg">
<path d="M9.50065 16.6252L8.35273 15.5961C7.0201 14.3954 5.91836 13.3596 5.04753 12.4888C4.17669 11.6179 3.48398 10.836 2.9694 10.1431C2.45482 9.45062 2.0954 8.81412 1.89115 8.23356C1.6869 7.65301 1.58451 7.05926 1.58398 6.45231C1.58398 5.21203 1.99961 4.17627 2.83086 3.34502C3.66211 2.51377 4.69787 2.09814 5.93815 2.09814C6.62426 2.09814 7.27739 2.24328 7.89753 2.53356C8.51766 2.82384 9.05204 3.23287 9.50065 3.76064C9.94926 3.23287 10.4836 2.82384 11.1038 2.53356C11.7239 2.24328 12.377 2.09814 13.0632 2.09814C14.3034 2.09814 15.3392 2.51377 16.1704 3.34502C17.0017 4.17627 17.4173 5.21203 17.4173 6.45231C17.4173 7.05926 17.3149 7.65301 17.1101 8.23356C16.9054 8.81412 16.546 9.45062 16.0319 10.1431C15.5173 10.836 14.8246 11.6179 13.9538 12.4888C13.0829 13.3596 11.9812 14.3954 10.6486 15.5961L9.50065 16.6252ZM9.50065 14.4877C10.7673 13.353 11.8097 12.3798 12.6277 11.5681C13.4458 10.7563 14.0923 10.0507 14.5673 9.45114C15.0423 8.85053 15.3722 8.31589 15.5569 7.84723C15.7416 7.37856 15.834 6.91359 15.834 6.45231C15.834 5.66064 15.5701 5.00092 15.0423 4.47314C14.5145 3.94537 13.8548 3.68148 13.0632 3.68148C12.443 3.68148 11.8691 3.85617 11.3413 4.20556C10.8135 4.55495 10.4507 5.00039 10.2527 5.54189H8.74857C8.55065 5.00092 8.1878 4.55548 7.66003 4.20556C7.13225 3.85564 6.55829 3.68095 5.93815 3.68148C5.14648 3.68148 4.48676 3.94537 3.95898 4.47314C3.43121 5.00092 3.16732 5.66064 3.16732 6.45231C3.16732 6.91412 3.25968 7.37935 3.4444 7.84802C3.62912 8.31669 3.95898 8.85106 4.43398 9.45114C4.90898 10.0512 5.55551 10.7571 6.37357 11.5689C7.19162 12.3806 8.23398 13.3535 9.50065 14.4877Z" fill="black"/>
</svg>
