<svg width="20" height="20" viewBox="0 0 20 20" fill="none" xmlns="http://www.w3.org/2000/svg">
<path d="M9.99935 17.5002L8.79102 16.4168C7.38824 15.1529 6.22852 14.0627 5.31185 13.146C4.39518 12.2293 3.66602 11.4063 3.12435 10.6768C2.58268 9.94794 2.20435 9.27794 1.98935 8.66683C1.77435 8.05572 1.66657 7.43072 1.66602 6.79183C1.66602 5.48627 2.10352 4.396 2.97852 3.521C3.85352 2.646 4.94379 2.2085 6.24935 2.2085C6.97157 2.2085 7.65907 2.36127 8.31185 2.66683C8.96463 2.97238 9.52713 3.40294 9.99935 3.9585C10.4716 3.40294 11.0341 2.97238 11.6868 2.66683C12.3396 2.36127 13.0271 2.2085 13.7493 2.2085C15.0549 2.2085 16.1452 2.646 17.0202 3.521C17.8952 4.396 18.3327 5.48627 18.3327 6.79183C18.3327 7.43072 18.2249 8.05572 18.0093 8.66683C17.7938 9.27794 17.4155 9.94794 16.8743 10.6768C16.3327 11.4063 15.6035 12.2293 14.6868 13.146C13.7702 14.0627 12.6105 15.1529 11.2077 16.4168L9.99935 17.5002ZM9.99935 15.2502C11.3327 14.0557 12.4299 13.0313 13.291 12.1768C14.1521 11.3224 14.8327 10.5796 15.3327 9.9485C15.8327 9.31627 16.1799 8.7535 16.3743 8.26016C16.5688 7.76683 16.666 7.27738 16.666 6.79183C16.666 5.9585 16.3882 5.26405 15.8327 4.7085C15.2771 4.15294 14.5827 3.87516 13.7493 3.87516C13.0966 3.87516 12.4924 4.05905 11.9368 4.42683C11.3813 4.79461 10.9993 5.2635 10.791 5.8335H9.20768C8.99935 5.26405 8.6174 4.79516 8.06185 4.42683C7.50629 4.0585 6.90213 3.87461 6.24935 3.87516C5.41602 3.87516 4.72157 4.15294 4.16602 4.7085C3.61046 5.26405 3.33268 5.9585 3.33268 6.79183C3.33268 7.27794 3.4299 7.76766 3.62435 8.261C3.81879 8.75433 4.16602 9.31683 4.66602 9.9485C5.16602 10.5802 5.84657 11.3232 6.70768 12.1777C7.56879 13.0321 8.66602 14.0563 9.99935 15.2502Z" fill="black"/>
</svg>
