<svg width="20" height="19" viewBox="0 0 20 19" fill="none" xmlns="http://www.w3.org/2000/svg">
<path d="M9.99935 16.6252L8.79102 15.5961C7.38824 14.3954 6.22852 13.3596 5.31185 12.4888C4.39518 11.6179 3.66602 10.836 3.12435 10.1431C2.58268 9.45062 2.20435 8.81412 1.98935 8.23356C1.77435 7.65301 1.66657 7.05926 1.66602 6.45231C1.66602 5.21203 2.10352 4.17627 2.97852 3.34502C3.85352 2.51377 4.94379 2.09814 6.24935 2.09814C6.97157 2.09814 7.65907 2.24328 8.31185 2.53356C8.96463 2.82384 9.52713 3.23287 9.99935 3.76064C10.4716 3.23287 11.0341 2.82384 11.6868 2.53356C12.3396 2.24328 13.0271 2.09814 13.7493 2.09814C15.0549 2.09814 16.1452 2.51377 17.0202 3.34502C17.8952 4.17627 18.3327 5.21203 18.3327 6.45231C18.3327 7.05926 18.2249 7.65301 18.0093 8.23356C17.7938 8.81412 17.4155 9.45062 16.8743 10.1431C16.3327 10.836 15.6035 11.6179 14.6868 12.4888C13.7702 13.3596 12.6105 14.3954 11.2077 15.5961L9.99935 16.6252ZM9.99935 14.4877C11.3327 13.353 12.4299 12.3798 13.291 11.5681C14.1521 10.7563 14.8327 10.0507 15.3327 9.45114C15.8327 8.85053 16.1799 8.31589 16.3743 7.84723C16.5688 7.37856 16.666 6.91359 16.666 6.45231C16.666 5.66064 16.3882 5.00092 15.8327 4.47314C15.2771 3.94537 14.5827 3.68148 13.7493 3.68148C13.0966 3.68148 12.4924 3.85617 11.9368 4.20556C11.3813 4.55495 10.9993 5.00039 10.791 5.54189H9.20768C8.99935 5.00092 8.6174 4.55548 8.06185 4.20556C7.50629 3.85564 6.90213 3.68095 6.24935 3.68148C5.41602 3.68148 4.72157 3.94537 4.16602 4.47314C3.61046 5.00092 3.33268 5.66064 3.33268 6.45231C3.33268 6.91412 3.4299 7.37935 3.62435 7.84802C3.81879 8.31669 4.16602 8.85106 4.66602 9.45114C5.16602 10.0512 5.84657 10.7571 6.70768 11.5689C7.56879 12.3806 8.66602 13.3535 9.99935 14.4877Z" fill="black"/>
</svg>
