<svg width="11" height="11" viewBox="0 0 11 11" fill="none" xmlns="http://www.w3.org/2000/svg">
<path d="M4.58464 6.87484L6.96339 5.49984L4.58464 4.12484V6.87484ZM9.88297 3.28609C9.94255 3.5015 9.9838 3.79025 10.0113 4.15692C10.0434 4.52359 10.0571 4.83984 10.0571 5.11484L10.0846 5.49984C10.0846 6.50359 10.0113 7.2415 9.88297 7.71359C9.76838 8.12609 9.50255 8.39192 9.09005 8.5065C8.87464 8.56609 8.48047 8.60734 7.87547 8.63484C7.27964 8.66692 6.73422 8.68067 6.23005 8.68067L5.5013 8.70817C3.58089 8.70817 2.38464 8.63484 1.91255 8.5065C1.50005 8.39192 1.23422 8.12609 1.11964 7.71359C1.06005 7.49817 1.0188 7.20942 0.991302 6.84275C0.959219 6.47609 0.945469 6.15984 0.945469 5.88484L0.917969 5.49984C0.917969 4.49609 0.991302 3.75817 1.11964 3.28609C1.23422 2.87359 1.50005 2.60775 1.91255 2.49317C2.12797 2.43359 2.52214 2.39234 3.12714 2.36484C3.72297 2.33275 4.26839 2.319 4.77255 2.319L5.5013 2.2915C7.42172 2.2915 8.61797 2.36484 9.09005 2.49317C9.50255 2.60775 9.76838 2.87359 9.88297 3.28609Z" fill="black"/>
</svg>
