<svg width="20" height="20" viewBox="0 0 20 20" fill="none" xmlns="http://www.w3.org/2000/svg">
<path d="M9.99935 16.667C11.7675 16.667 13.4632 15.9646 14.7134 14.7144C15.9636 13.4641 16.666 11.7684 16.666 10.0003C16.666 8.23222 15.9636 6.53652 14.7134 5.28628C13.4632 4.03604 11.7675 3.33366 9.99935 3.33366C8.23124 3.33366 6.53555 4.03604 5.2853 5.28628C4.03506 6.53652 3.33268 8.23222 3.33268 10.0003C3.33268 11.7684 4.03506 13.4641 5.2853 14.7144C6.53555 15.9646 8.23124 16.667 9.99935 16.667ZM9.99935 1.66699C11.0937 1.66699 12.1773 1.88254 13.1884 2.30133C14.1994 2.72012 15.1181 3.33395 15.8919 4.10777C16.6657 4.88159 17.2796 5.80025 17.6983 6.8113C18.1171 7.82234 18.3327 8.90598 18.3327 10.0003C18.3327 12.2105 17.4547 14.3301 15.8919 15.8929C14.3291 17.4557 12.2095 18.3337 9.99935 18.3337C5.39102 18.3337 1.66602 14.5837 1.66602 10.0003C1.66602 7.79019 2.54399 5.67057 4.10679 4.10777C5.6696 2.54497 7.78921 1.66699 9.99935 1.66699ZM10.416 5.83366V10.2087L14.166 12.4337L13.541 13.4587L9.16602 10.8337V5.83366H10.416Z" fill="#8F8F8F"/>
</svg>
