<svg width="20" height="20" viewBox="0 0 20 20" fill="none" xmlns="http://www.w3.org/2000/svg">
<path d="M14.1673 14.9998C13.2423 14.9998 12.5007 15.7415 12.5007 16.6665C12.5007 17.1085 12.6762 17.5325 12.9888 17.845C13.3014 18.1576 13.7253 18.3332 14.1673 18.3332C14.6093 18.3332 15.0333 18.1576 15.3458 17.845C15.6584 17.5325 15.834 17.1085 15.834 16.6665C15.834 16.2245 15.6584 15.8006 15.3458 15.488C15.0333 15.1754 14.6093 14.9998 14.1673 14.9998ZM0.833984 1.6665V3.33317H2.50065L5.50065 9.65817L4.36732 11.6998C4.24232 11.9332 4.16732 12.2082 4.16732 12.4998C4.16732 12.9419 4.34291 13.3658 4.65547 13.6783C4.96803 13.9909 5.39196 14.1665 5.83398 14.1665H15.834V12.4998H6.18398C6.12873 12.4998 6.07574 12.4779 6.03667 12.4388C5.9976 12.3997 5.97565 12.3468 5.97565 12.2915C5.97565 12.2498 5.98398 12.2165 6.00065 12.1915L6.75065 10.8332H12.959C13.584 10.8332 14.134 10.4832 14.4173 9.97484L17.4007 4.58317C17.459 4.44984 17.5007 4.30817 17.5007 4.1665C17.5007 3.94549 17.4129 3.73353 17.2566 3.57725C17.1003 3.42097 16.8883 3.33317 16.6673 3.33317H4.34232L3.55898 1.6665M5.83398 14.9998C4.90898 14.9998 4.16732 15.7415 4.16732 16.6665C4.16732 17.1085 4.34291 17.5325 4.65547 17.845C4.96803 18.1576 5.39196 18.3332 5.83398 18.3332C6.27601 18.3332 6.69993 18.1576 7.0125 17.845C7.32506 17.5325 7.50065 17.1085 7.50065 16.6665C7.50065 16.2245 7.32506 15.8006 7.0125 15.488C6.69993 15.1754 6.27601 14.9998 5.83398 14.9998Z" fill="black"/>
</svg>
