<svg width="18" height="18" viewBox="0 0 18 18" fill="none" xmlns="http://www.w3.org/2000/svg">
<g clip-path="url(#clip0_42_10)">
<path d="M9 16.5C13.1423 16.5 16.5 13.1423 16.5 9C16.5 4.85775 13.1423 1.5 9 1.5C4.85775 1.5 1.5 4.85775 1.5 9C1.5 12.0045 3.267 14.5965 5.8185 15.7935L7.536 7.719C7.58 7.52713 7.69767 7.36025 7.86362 7.25437C8.02957 7.14849 8.2305 7.1121 8.42304 7.15305C8.61559 7.194 8.78431 7.30901 8.89281 7.47326C9.00131 7.63751 9.04089 7.83783 9.003 8.031C8.7975 9 8.6175 9.375 8.62575 9.825C8.6385 10.53 8.8305 10.9065 9.0165 11.1015C9.20625 11.3003 9.48 11.4075 9.83775 11.4015C10.203 11.394 10.6163 11.2657 10.9823 11.0347C11.6932 10.5878 12 9.82125 12 9C11.9995 8.55432 11.8997 8.11435 11.7079 7.71207C11.5161 7.30979 11.237 6.9553 10.891 6.67438C10.545 6.39345 10.1408 6.19314 9.70769 6.08801C9.27459 5.98287 8.8235 5.97556 8.38722 6.06659C7.95094 6.15763 7.54042 6.34472 7.1855 6.61428C6.83059 6.88384 6.54019 7.2291 6.33542 7.62495C6.13064 8.0208 6.01664 8.4573 6.00169 8.90272C5.98674 9.34815 6.07123 9.79131 6.249 10.2C6.32148 10.3809 6.32067 10.583 6.24673 10.7634C6.1728 10.9437 6.03155 11.0882 5.85292 11.1662C5.67429 11.2442 5.4723 11.2496 5.28976 11.1813C5.10722 11.1129 4.95846 10.9762 4.875 10.8C4.57644 10.1152 4.45306 9.36685 4.516 8.62246C4.57893 7.87806 4.8262 7.16105 5.2355 6.5361C5.64479 5.91115 6.20323 5.39793 6.86044 5.04274C7.51765 4.68755 8.25295 4.50156 9 4.50156C9.74705 4.50156 10.4823 4.68755 11.1396 5.04274C11.7968 5.39793 12.3552 5.91115 12.7645 6.5361C13.1738 7.16105 13.4211 7.87806 13.484 8.62246C13.5469 9.36685 13.4236 10.1152 13.125 10.8C12.849 11.436 12.345 11.9505 11.781 12.3053C11.2148 12.6615 10.5382 12.8895 9.86475 12.9015C9.2505 12.9127 8.61075 12.7425 8.0955 12.2955L7.245 16.2945C7.8075 16.4295 8.3955 16.5007 8.99925 16.5007L9 16.5Z" fill="#F8F8F8"/>
</g>
<defs>
<clipPath id="clip0_42_10">
<rect width="18" height="18" fill="white"/>
</clipPath>
</defs>
</svg>
