<svg width="15" height="15" viewBox="0 0 15 15" fill="none" xmlns="http://www.w3.org/2000/svg">
<g clip-path="url(#clip0_42_50)">
<path d="M7.5 13.75C10.9519 13.75 13.75 10.9519 13.75 7.5C13.75 4.04813 10.9519 1.25 7.5 1.25C4.04813 1.25 1.25 4.04813 1.25 7.5C1.25 10.0037 2.7225 12.1638 4.84875 13.1613L6.28 6.4325C6.31667 6.27261 6.41473 6.13354 6.55302 6.04531C6.69131 5.95708 6.85875 5.92675 7.0192 5.96088C7.17966 5.995 7.32026 6.09084 7.41068 6.22772C7.50109 6.36459 7.53407 6.53153 7.5025 6.6925C7.33125 7.5 7.18125 7.8125 7.18813 8.1875C7.19875 8.775 7.35875 9.08875 7.51375 9.25125C7.67188 9.41687 7.9 9.50625 8.19812 9.50125C8.5025 9.495 8.84687 9.38813 9.15187 9.19563C9.74438 8.82313 10 8.18437 10 7.5C9.99959 7.1286 9.91643 6.76196 9.75657 6.42673C9.59671 6.09149 9.36417 5.79609 9.07584 5.56198C8.78752 5.32788 8.45066 5.16095 8.08974 5.07334C7.72882 4.98573 7.35292 4.97963 6.98935 5.05549C6.62578 5.13136 6.28368 5.28727 5.98792 5.5119C5.69216 5.73654 5.45016 6.02425 5.27951 6.35412C5.10887 6.684 5.01386 7.04775 5.00141 7.41894C4.98895 7.79013 5.05935 8.15943 5.2075 8.5C5.2679 8.65079 5.26722 8.81917 5.20561 8.96946C5.144 9.11976 5.02629 9.24017 4.87743 9.30517C4.72857 9.37018 4.56025 9.37467 4.40813 9.31771C4.25601 9.26074 4.13205 9.14679 4.0625 9C3.8137 8.42934 3.71088 7.80571 3.76333 7.18538C3.81578 6.56505 4.02184 5.96754 4.36291 5.44675C4.70399 4.92596 5.16936 4.49827 5.71704 4.20228C6.26471 3.90629 6.87746 3.7513 7.5 3.7513C8.12254 3.7513 8.73529 3.90629 9.28296 4.20228C9.83064 4.49827 10.296 4.92596 10.6371 5.44675C10.9782 5.96754 11.1842 6.56505 11.2367 7.18538C11.2891 7.80571 11.1863 8.42934 10.9375 9C10.7075 9.53 10.2875 9.95875 9.8175 10.2544C9.34562 10.5512 8.78188 10.7413 8.22062 10.7512C7.70875 10.7606 7.17562 10.6187 6.74625 10.2462L6.0375 13.5787C6.50625 13.6912 6.99625 13.7506 7.49937 13.7506L7.5 13.75Z" fill="#E5001E"/>
</g>
<defs>
<clipPath id="clip0_42_50">
<rect width="15" height="15" fill="white"/>
</clipPath>
</defs>
</svg>
