<svg width="19" height="18" viewBox="0 0 19 18" fill="none" xmlns="http://www.w3.org/2000/svg">
<path d="M6.11167 16.3351C6.22422 16.4345 6.37309 16.4886 6.52691 16.486C6.68074 16.4834 6.8275 16.4244 6.93628 16.3213C7.04507 16.2183 7.10738 16.0792 7.1101 15.9335C7.11281 15.7878 7.05571 15.6468 6.95083 15.5401L4.40167 13.1251H16.0313C16.1887 13.1251 16.3397 13.0659 16.4511 12.9604C16.5624 12.8549 16.625 12.7118 16.625 12.5626C16.625 12.4134 16.5624 12.2704 16.4511 12.1649C16.3397 12.0594 16.1887 12.0001 16.0313 12.0001H4.40167L6.95083 9.58513C7.00917 9.53363 7.05596 9.47153 7.08841 9.40253C7.12086 9.33353 7.13831 9.25905 7.13972 9.18352C7.14113 9.10799 7.12646 9.03297 7.0966 8.96293C7.06673 8.89289 7.02229 8.82926 6.96591 8.77585C6.90952 8.72244 6.84236 8.68033 6.76843 8.65204C6.6945 8.62375 6.61531 8.60985 6.53559 8.61119C6.45586 8.61252 6.37724 8.62905 6.30441 8.65979C6.23157 8.69054 6.16602 8.73486 6.11167 8.79013L2.54917 12.1651C2.43798 12.2706 2.37552 12.4136 2.37552 12.5626C2.37552 12.7117 2.43798 12.8547 2.54917 12.9601L6.11167 16.3351ZM12.8883 9.21013C12.834 9.26539 12.7684 9.30972 12.6956 9.34046C12.6228 9.37121 12.5441 9.38774 12.4644 9.38907C12.3847 9.39041 12.3055 9.37651 12.2316 9.34822C12.1576 9.31993 12.0905 9.27782 12.0341 9.22441C11.9777 9.17099 11.9333 9.10737 11.9034 9.03733C11.8735 8.96729 11.8589 8.89226 11.8603 8.81674C11.8617 8.74121 11.8791 8.66672 11.9116 8.59773C11.944 8.52873 11.9908 8.46663 12.0492 8.41513L14.5983 6.00013H2.96875C2.81128 6.00013 2.66026 5.94087 2.54891 5.83538C2.43756 5.72989 2.375 5.58681 2.375 5.43763C2.375 5.28844 2.43756 5.14537 2.54891 5.03988C2.66026 4.93439 2.81128 4.87513 2.96875 4.87513H14.5983L12.0492 2.46013C11.9443 2.3535 11.8872 2.21246 11.8899 2.06674C11.8926 1.92101 11.9549 1.78197 12.0637 1.67891C12.1725 1.57585 12.3193 1.51682 12.4731 1.51425C12.6269 1.51168 12.7758 1.56577 12.8883 1.66513L16.4508 5.04013C16.562 5.1456 16.6245 5.28857 16.6245 5.43763C16.6245 5.58669 16.562 5.72966 16.4508 5.83513L12.8883 9.21013Z" fill="black"/>
</svg>
