<svg width="18" height="18" viewBox="0 0 18 18" fill="none" xmlns="http://www.w3.org/2000/svg">
<path d="M5.79 16.3351C5.89663 16.4345 6.03767 16.4886 6.18339 16.486C6.32912 16.4834 6.46816 16.4244 6.57122 16.3213C6.67428 16.2183 6.73331 16.0792 6.73588 15.9335C6.73845 15.7878 6.68436 15.6468 6.585 15.5401L4.17 13.1251H15.1875C15.3367 13.1251 15.4798 13.0659 15.5852 12.9604C15.6907 12.8549 15.75 12.7118 15.75 12.5626C15.75 12.4134 15.6907 12.2704 15.5852 12.1649C15.4798 12.0594 15.3367 12.0001 15.1875 12.0001H4.17L6.585 9.58513C6.64026 9.53363 6.68459 9.47153 6.71534 9.40253C6.74608 9.33353 6.76261 9.25905 6.76394 9.18352C6.76528 9.10799 6.75138 9.03297 6.72309 8.96293C6.6948 8.89289 6.65269 8.82926 6.59928 8.77585C6.54586 8.72244 6.48224 8.68033 6.4122 8.65204C6.34216 8.62375 6.26714 8.60985 6.19161 8.61119C6.11608 8.61252 6.0416 8.62905 5.9726 8.65979C5.9036 8.69054 5.8415 8.73486 5.79 8.79013L2.415 12.1651C2.30966 12.2706 2.25049 12.4136 2.25049 12.5626C2.25049 12.7117 2.30966 12.8547 2.415 12.9601L5.79 16.3351ZM12.21 9.21013C12.1585 9.26539 12.0964 9.30972 12.0274 9.34046C11.9584 9.37121 11.8839 9.38774 11.8084 9.38907C11.7329 9.39041 11.6578 9.37651 11.5878 9.34822C11.5178 9.31993 11.4541 9.27782 11.4007 9.22441C11.3473 9.17099 11.3052 9.10737 11.2769 9.03733C11.2486 8.96729 11.2347 8.89226 11.2361 8.81674C11.2374 8.74121 11.2539 8.66672 11.2847 8.59773C11.3154 8.52873 11.3597 8.46663 11.415 8.41513L13.83 6.00013H2.8125C2.66332 6.00013 2.52024 5.94087 2.41475 5.83538C2.30926 5.72989 2.25 5.58681 2.25 5.43763C2.25 5.28844 2.30926 5.14537 2.41475 5.03988C2.52024 4.93439 2.66332 4.87513 2.8125 4.87513H13.83L11.415 2.46013C11.3156 2.3535 11.2615 2.21246 11.2641 2.06674C11.2667 1.92101 11.3257 1.78197 11.4288 1.67891C11.5318 1.57585 11.6709 1.51682 11.8166 1.51425C11.9623 1.51168 12.1034 1.56577 12.21 1.66513L15.585 5.04013C15.6903 5.1456 15.7495 5.28857 15.7495 5.43763C15.7495 5.58669 15.6903 5.72966 15.585 5.83513L12.21 9.21013Z" fill="black"/>
</svg>
